<svg xmlns="http://www.w3.org/2000/svg" xmlns:xlink="http://www.w3.org/1999/xlink" viewBox="0 0 2000.5 300.5"><defs><style>.cls-1,.cls-3,.cls-5{fill:none;}.cls-2{fill:#acbed8;}.cls-3{stroke:#2f344d;stroke-width:14px;}.cls-3,.cls-5{stroke-miterlimit:10;}.cls-4{clip-path:url(#clip-path);}.cls-5{stroke:#000;}</style><clipPath id="clip-path"><rect class="cls-1" x="962" y="105" width="76" height="76"/></clipPath></defs><title>jumbotron</title><g id="Layer_2" data-name="Layer 2"><g id="Layer_1-2" data-name="Layer 1"><polygon class="cls-2" points="1175 0 0 0.7 0 300 1175 0"/><polyline class="cls-2" points="2000.5 77.5 569 300.5 2000 300"/><circle class="cls-3" cx="1000.5" cy="143.5" r="65.5"/><g class="cls-4"><g class="cls-4"><path d="M1034.24,106.86h-68.4v11.4h12.75a34.2,34.2,0,1,0,42.9,0h12.75Zm-9.5,38a24.7,24.7,0,1,1-24.7-24.7,24.7,24.7,0,0,1,24.7,24.7"/><path class="cls-5" d="M1034.24,106.86h-68.4v11.4h12.75a34.2,34.2,0,1,0,42.9,0h12.75Zm-9.5,38a24.7,24.7,0,1,1-24.7-24.7A24.7,24.7,0,0,1,1024.74,144.9Z"/></g></g></g></g></svg>