<svg xmlns="http://www.w3.org/2000/svg" xmlns:xlink="http://www.w3.org/1999/xlink" viewBox="0 0 60.93 64.29"><defs><style>.cls-1,.cls-3{fill:none;}.cls-2{clip-path:url(#clip-path);}.cls-3{stroke:#000;stroke-miterlimit:10;}</style><clipPath id="clip-path" transform="translate(-2.86 -1.13)"><rect class="cls-1" width="66.58" height="66.58"/></clipPath></defs><title>logo</title><g id="Layer_2" data-name="Layer 2"><g id="Design"><g id="Navbar"><g id="Logo"><g class="cls-2"><g class="cls-2"><path d="M63.29,1.63H3.36v10H14.53a30,30,0,1,0,37.59,0H63.29ZM55,35A21.64,21.64,0,1,1,33.33,13.32,21.64,21.64,0,0,1,55,35" transform="translate(-2.86 -1.13)"/><path class="cls-3" d="M63.29,1.63H3.36v10H14.53a30,30,0,1,0,37.59,0H63.29ZM55,35A21.64,21.64,0,1,1,33.33,13.32,21.64,21.64,0,0,1,55,35Z" transform="translate(-2.86 -1.13)"/></g></g></g></g></g></g></svg>