<svg xmlns="http://www.w3.org/2000/svg" xmlns:xlink="http://www.w3.org/1999/xlink" viewBox="0 0 229.75 179.93"><defs><style>.cls-1,.cls-4{fill:none;}.cls-2{fill:#030104;}.cls-3{clip-path:url(#clip-path);}.cls-4{stroke:#000;stroke-miterlimit:10;}</style><clipPath id="clip-path"><rect class="cls-1" x="87.11" y="65.76" width="52.98" height="52.98"/></clipPath></defs><title>tracking</title><g id="Layer_2" data-name="Layer 2"><g id="Design"><g id="Product"><g id="Picto_product_2" data-name="Picto product 2"><g id="basket"><path id="_Path_" data-name="&lt;Path&gt;" d="M193.2,70.08a3.92,3.92,0,1,0-3.92-3.92A3.92,3.92,0,0,0,193.2,70.08Z"/><path id="_Compound_Path_" data-name="&lt;Compound Path&gt;" d="M206.76,65a1.65,1.65,0,0,0-2.33,0l-5.72,5.75-4.78.09h-1.44a3.37,3.37,0,0,0-3.27,2.59l-2.9,2a1.65,1.65,0,0,0-.7,1.11l-1.05,6.77a1.65,1.65,0,1,0,3.26.51l.94-6.07.35-.24c0,4.62,0,10.33,0,15l-3.74,8.75a2,2,0,1,0,3.75,1.6l1.74-4.07a2,2,0,0,0,.71,1.06,2,2,0,0,0,2.86-.43l5.36-7.29a2,2,0,0,0,.12-2.24l-2.6-4.46c0-15,0-10.33,0-11.25L199.5,74a1.65,1.65,0,0,0,1.09-.48l6.17-6.2A1.65,1.65,0,0,0,206.76,65ZM192.3,95.33l.53-1.24a4.32,4.32,0,0,0,.35-1.7v-4h1.18l1.33,2.29Z"/><path id="_Path_2" data-name="&lt;Path&gt;" d="M211.51,56.45a3.83,3.83,0,1,0,3.83,3.83A3.83,3.83,0,0,0,211.51,56.45Z"/><path id="_Compound_Path_2" data-name="&lt;Compound Path&gt;" d="M229.46,63.3a1.18,1.18,0,0,0-.89-.4H217.86a1.18,1.18,0,0,0-1.17,1.33l1.57,11.7a1.18,1.18,0,0,0,1.17,1H227a1.18,1.18,0,0,0,1.17-1l1.57-11.7A1.18,1.18,0,0,0,229.46,63.3ZM226,74.59h-5.51l-1.25-9.34h8Z"/></g><g id="sleep"><path d="M134.56,8.14H106.68c-1.36,0-3.64.51-3.64,4v5.33H138.2V12.14C138.2,8.67,135.92,8.14,134.56,8.14Z"/><polygon points="95.47 18.62 90.17 18.62 90.17 0 86.65 0 86.65 36.09 90.17 36.09 90.17 26.77 137.03 26.77 137.03 36.08 140.54 36.08 140.54 18.62 95.47 18.62"/><ellipse cx="96.02" cy="12.8" rx="4.91" ry="4.88"/></g><g id="run"><path class="cls-2" d="M174.07,151a1.52,1.52,0,0,0-2.14-.19l-4.21,3.54-1.94-4.8a1.49,1.49,0,0,0-.29-.46,4.12,4.12,0,0,0-2-2.07,4.17,4.17,0,0,0-1.26-.34,1.72,1.72,0,0,0-.28-.15l-7.41-2.06a1.52,1.52,0,0,0-1.18.16,1.48,1.48,0,0,0-.92.86l-2.79,7.17a1.52,1.52,0,1,0,2.83,1.1l2.36-6.06,3.37.94a4,4,0,0,0-.24.4l-4.32,9.37a3.58,3.58,0,0,0-.14.42l-5.26,8.81-8.8,2.94a2.25,2.25,0,0,0,2.67,3.62l9-3.1a2.16,2.16,0,0,0,.63-.74,2.06,2.06,0,0,0,.33-.36l3.13-5.25,5.56,4.74-6,6.71a2.24,2.24,0,0,0,3.36,3l7.43-8.37a2.22,2.22,0,0,0,.46-.87,2.15,2.15,0,0,0,.07-.52c0-.09,0-.17,0-.25a2.2,2.2,0,0,0-.77-1.63l-5.12-4.36a4.11,4.11,0,0,0,.91-1.26l3.32-7.18,1.06,2.83a1.43,1.43,0,0,0,.31.7,1.46,1.46,0,0,0,.58.41l.08,0a1.48,1.48,0,0,0,.42.1,1.44,1.44,0,0,0,.52-.06h0a.76.76,0,0,0,.14,0,1.5,1.5,0,0,0,.6-.44l6-5.13C174.88,152.61,174.61,151.65,174.07,151Z"/><circle class="cls-2" cx="166.43" cy="143.13" r="4.23"/></g><g id="gym"><path d="M45.62,65.72H44.37v-4.2a.79.79,0,0,0-.79-.79H41.44a.79.79,0,0,0-.79.79v4.2H37.91a2.18,2.18,0,0,0-4.34-.44l0,.44H29.74a6.81,6.81,0,0,1-12.38,0H13.6l0-.44a2.18,2.18,0,0,0-4.34.44H6.46v-4.2a.79.79,0,0,0-.79-.79H3.52a.79.79,0,0,0-.79.79v4.2H1.49a1.49,1.49,0,1,0,0,3H2.74v4.2a.79.79,0,0,0,.79.79H5.67a.79.79,0,0,0,.79-.79v-4.2H9.52l.86,8.11A2.19,2.19,0,0,0,14.19,78l3.07-3.51v8.35L9.32,86.08a2.84,2.84,0,0,0-1.74,2.2L6,98.66a2.84,2.84,0,1,0,5.61.86L13,90.73l7.34-3h6.52l7.34,3,1.34,8.79a2.84,2.84,0,1,0,5.61-.86L39.53,88.28a2.84,2.84,0,0,0-1.74-2.2l-8-3.25v-8.4L32.92,78a2.18,2.18,0,0,0,3.81-1.21l.86-8.11h3.06v4.2a.79.79,0,0,0,.79.79h2.15a.79.79,0,0,0,.79-.79v-4.2h1.25a1.49,1.49,0,1,0,0-3ZM14.19,71.37l-.28-2.68h2.63Zm18.73,0-2.34-2.68H33.2Z"/><circle cx="23.55" cy="62.86" r="4.9"/></g><g id="football"><circle cx="73.22" cy="138.89" r="3.04"/><path d="M85.53,168.83a3,3,0,1,1-3,3A3,3,0,0,1,85.53,168.83Z"/><path d="M64.08,159.06l-8.51-4.69a2.36,2.36,0,0,0-2.27,4.13l10.4,5.73a2.36,2.36,0,0,0,3.1-.75l1.82-2.72L71.8,165l5,12.09a2.36,2.36,0,0,0,4.36-1.8L76,162.91a2.37,2.37,0,0,0-.3-.52l-3-4,1.8-10.63,7.87,3.65A1.83,1.83,0,1,0,83.91,148l-7-3.23L75,143.9a1.8,1.8,0,0,0-.55-.15l-7.88-2.56A1.83,1.83,0,0,0,66,141l-.18,0-.14,0v0l-6.63-1.32-4.33-3.45A1.83,1.83,0,0,0,52.46,139l4.68,3.73a1.83,1.83,0,0,0,.78.36l7.39,1.47.3,0-.33,12.63Z"/></g><g id="Logo"><g class="cls-3"><g class="cls-3"><path d="M137.47,67.06H89.78V75h8.89a23.84,23.84,0,1,0,29.91,0h8.89Zm-6.62,26.52a17.22,17.22,0,1,1-17.22-17.22,17.22,17.22,0,0,1,17.22,17.22"/><path class="cls-4" d="M137.47,67.06H89.78V75h8.89a23.84,23.84,0,1,0,29.91,0h8.89Zm-6.62,26.52a17.22,17.22,0,1,1-17.22-17.22A17.22,17.22,0,0,1,130.84,93.58Z"/></g></g></g></g></g></g></g></svg>